<svg xmlns="http://www.w3.org/2000/svg" viewBox="0 0 24 24" fill="currentColor">
  <path d="M12 2a10 10 0 0 0-3.162 19.486c.5.092.684-.217.684-.483 0-.237-.009-.866-.014-1.7-2.782.604-3.369-1.342-3.369-1.342-.454-1.154-1.11-1.462-1.11-1.462-.908-.621.069-.609.069-.609 1.003.07 1.53 1.03 1.53 1.03.892 1.528 2.341 1.087 2.91.832.091-.647.35-1.087.636-1.337-2.222-.253-4.556-1.111-4.556-4.944 0-1.091.39-1.984 1.03-2.683-.103-.253-.446-1.271.098-2.65 0 0 .84-.269 2.75 1.025A9.564 9.564 0 0 1 12 6.844a9.56 9.56 0 0 1 2.504.337c1.909-1.294 2.748-1.025 2.748-1.025.546 1.379.203 2.397.1 2.65.64.699 1.028 1.592 1.028 2.683 0 3.842-2.337 4.687-4.566 4.935.359.309.679.919.679 1.852 0 1.337-.012 2.415-.012 2.744 0 .268.18.58.688.482A10 10 0 0 0 12 2z"/>
</svg>
