<svg xmlns="http://www.w3.org/2000/svg" xmlns:xlink="http://www.w3.org/1999/xlink" viewBox="0 0 986 759"><defs><style>.cls-1{fill:#e9e9ee;}.cls-2,.cls-7{fill:#fff;}.cls-3{fill:#fbcd33;}.cls-4{fill:url(#linear-gradient);}.cls-5{fill:#ddd;}.cls-6{fill:#8c94a2;}.cls-7{opacity:0.75;}.cls-8{fill:#76b442;}.cls-9{fill:#272e39;}.cls-10{fill:#e85e48;}</style><linearGradient id="linear-gradient" x1="526.5" y1="661" x2="526.5" y2="166" gradientUnits="userSpaceOnUse"><stop offset="0" stop-color="#fff"/><stop offset="0.1" stop-color="#fffcf4"/><stop offset="0.28" stop-color="#fef5d8"/><stop offset="0.51" stop-color="#fdeaa9"/><stop offset="0.79" stop-color="#fcda69"/><stop offset="1" stop-color="#fbcd33"/></linearGradient></defs><title>herov</title><g id="bg"><rect class="cls-1" x="152" y="18" width="750" height="642" rx="12"/><path class="cls-2" d="M178.07,39H875.93A4.07,4.07,0,0,1,880,43.07V660a0,0,0,0,1,0,0H174a0,0,0,0,1,0,0V43.07A4.07,4.07,0,0,1,178.07,39Z"/></g><g id="chart"><polygon class="cls-3" points="940.5 656.5 112.5 656.5 112.5 295.5 278.1 267.5 443.7 205.5 609.3 214.5 774.9 171.5 940.5 161.5 940.5 656.5"/><polygon class="cls-4" points="940.5 661 112.5 661 112.5 300 278.1 272 443.7 210 609.3 219 774.9 176 940.5 166 940.5 661"/></g><g id="grid"><path class="cls-5" d="M19.76,128l1.84-2a9.46,9.46,0,0,0,7,3.46,5.5,5.5,0,0,0,5.83-5.51c0-3.17-2.44-5.33-5.9-5.33A9.14,9.14,0,0,0,23,120.43l-2.05-1,.36-12.7H35.93v2.66H24.05l-.25,8.31A9.14,9.14,0,0,1,29.09,116c4.46,0,8.17,2.81,8.17,7.7s-3.71,8.14-8.79,8.14A11.22,11.22,0,0,1,19.76,128Z"/><path class="cls-3" d="M68,101.21a2.11,2.11,0,0,1,1.23-1.12,2.37,2.37,0,0,1,1.62,0A2.11,2.11,0,0,1,72,101.21l4.57,9.28L86.88,112a2.1,2.1,0,0,1,1.44.84,2.39,2.39,0,0,1,.49,1.55,2.18,2.18,0,0,1-.67,1.48l-7.45,7.24,1.76,10.26a2.24,2.24,0,0,1-.32,1.59,2.1,2.1,0,0,1-1.3.95,2.15,2.15,0,0,1-1.62-.22L70,130.88l-9.21,4.78a2.17,2.17,0,0,1-2.92-.73,2.23,2.23,0,0,1-.31-1.59l1.75-10.26-7.45-7.24a2.23,2.23,0,0,1-.67-1.48,2.34,2.34,0,0,1,.5-1.55,2.1,2.1,0,0,1,1.44-.84l10.26-1.48Z"/><path class="cls-5" d="M31.46,233.43H19.12l-.36-2.34L31,214.72h3.24v16.16H38v2.55H34.27v6H31.46Zm0-2.55V218.1L22,230.88Z"/><path class="cls-3" d="M68.4,209.21a2.11,2.11,0,0,1,1.23-1.12,2.34,2.34,0,0,1,1.61,0,2.11,2.11,0,0,1,1.23,1.12L77,218.49,87.31,220a2.1,2.1,0,0,1,1.44.84,2.33,2.33,0,0,1,.49,1.55,2.14,2.14,0,0,1-.67,1.48l-7.45,7.24,1.76,10.26a2.24,2.24,0,0,1-.32,1.59,2.16,2.16,0,0,1-2.91.73l-9.22-4.78-9.21,4.78a2.11,2.11,0,0,1-1.61.22,2.07,2.07,0,0,1-1.3-.95,2.24,2.24,0,0,1-.32-1.59l1.76-10.26-7.46-7.24a2.17,2.17,0,0,1-.66-1.48,2.33,2.33,0,0,1,.49-1.55,2.1,2.1,0,0,1,1.44-.84l10.26-1.48Z"/><path class="cls-5" d="M19.42,343.63l1.95-1.84a8.76,8.76,0,0,0,7.05,3.53c3.46,0,5.76-1.91,5.76-4.71s-2.48-4.4-6.37-4.4H25.18v-2.59l2.66,0c3.32,0,5.8-1.55,5.8-4.36,0-2.59-2.38-4.46-5.47-4.46-2.74,0-4.68,1.37-6.44,3.49l-1.88-1.69a10.28,10.28,0,0,1,8.46-4.36c4.72,0,8.17,2.74,8.17,6.7,0,3.17-2.23,5-4.78,5.8,2.52.57,5.32,2.41,5.32,6,0,4.14-3.45,7.13-8.6,7.13A11.11,11.11,0,0,1,19.42,343.63Z"/><path class="cls-3" d="M67.73,317.21A2.11,2.11,0,0,1,69,316.09a2.37,2.37,0,0,1,1.62,0,2.11,2.11,0,0,1,1.23,1.12l4.57,9.28L86.64,328a2.1,2.1,0,0,1,1.44.84,2.34,2.34,0,0,1,.5,1.55,2.23,2.23,0,0,1-.67,1.48l-7.45,7.24,1.75,10.26a2.23,2.23,0,0,1-.31,1.59,2.17,2.17,0,0,1-2.92.73l-9.21-4.78-9.21,4.78a2.15,2.15,0,0,1-1.62.22,2.1,2.1,0,0,1-1.3-.95,2.24,2.24,0,0,1-.32-1.59l1.76-10.26-7.45-7.24a2.18,2.18,0,0,1-.67-1.48,2.39,2.39,0,0,1,.49-1.55,2.1,2.1,0,0,1,1.44-.84l10.27-1.48Z"/><path class="cls-5" d="M19.69,453.11l9-7.71c3.49-3,4.93-5.36,4.93-7.81a4.87,4.87,0,0,0-5.15-4.79c-2.88,0-4.93,1.55-6.62,3.86l-2-1.62a10.18,10.18,0,0,1,8.71-4.76c4.28,0,7.88,2.85,7.88,7.28,0,3.34-1.65,6-5.83,9.61l-6.48,5.61H36.75v2.67H19.69Z"/><path class="cls-3" d="M67.78,425.21A2.11,2.11,0,0,1,69,424.09a2.37,2.37,0,0,1,1.62,0,2.11,2.11,0,0,1,1.23,1.12l4.57,9.28L86.7,436a2.1,2.1,0,0,1,1.44.84,2.39,2.39,0,0,1,.49,1.55,2.18,2.18,0,0,1-.67,1.48l-7.45,7.24,1.76,10.26a2.24,2.24,0,0,1-.32,1.59,2.1,2.1,0,0,1-1.3.95,2.15,2.15,0,0,1-1.62-.22l-9.21-4.78-9.21,4.78a2.17,2.17,0,0,1-2.92-.73,2.23,2.23,0,0,1-.31-1.59l1.75-10.26-7.45-7.24a2.23,2.23,0,0,1-.67-1.48,2.34,2.34,0,0,1,.5-1.55A2.1,2.1,0,0,1,53,436l10.26-1.48Z"/><path class="cls-5" d="M28.66,542.14l-4.32,2.8-1.23-2.08,6.09-4.14h2.26v24.73h-2.8Z"/><path class="cls-3" d="M63.54,533.21a2.11,2.11,0,0,1,1.23-1.12,2.34,2.34,0,0,1,1.61,0,2.11,2.11,0,0,1,1.23,1.12l4.57,9.28L82.45,544a2.1,2.1,0,0,1,1.44.84,2.33,2.33,0,0,1,.49,1.55,2.14,2.14,0,0,1-.67,1.48l-7.45,7.24L78,565.34a2.24,2.24,0,0,1-.32,1.59,2.16,2.16,0,0,1-2.91.73l-9.22-4.78-9.21,4.78a2.11,2.11,0,0,1-1.61.22,2.07,2.07,0,0,1-1.3-1,2.24,2.24,0,0,1-.32-1.59l1.76-10.26-7.46-7.24a2.17,2.17,0,0,1-.66-1.48,2.33,2.33,0,0,1,.49-1.55A2.1,2.1,0,0,1,48.7,544L59,542.49Z"/><path class="cls-6" d="M103,715.2H92.3l-1.93,4.37H88l8.48-19.24h2.38l8.49,19.24H105Zm-.9-2.07L97.68,703,93.2,713.13Z"/><path class="cls-6" d="M124.59,712.32c0,4.45-2.86,7.59-6.67,7.59a5.87,5.87,0,0,1-5.26-3v7.53h-2.1V705.1h2.1v2.71a5.87,5.87,0,0,1,5.26-3C121.73,704.76,124.59,707.9,124.59,712.32Zm-2.22,0c0-3.33-2-5.68-4.84-5.68s-4.87,2.35-4.87,5.68,2,5.71,4.87,5.71S122.37,715.65,122.37,712.32Z"/><path class="cls-6" d="M136.12,704.76v1.88c-3.27,0-5.6,2-5.6,4.84v8.09h-2.1V705.1h2.1v2.82A5.84,5.84,0,0,1,136.12,704.76Z"/><path class="cls-6" d="M264.35,700.33h2.19l7.14,13.42,7.14-13.42H283v19.24h-2.18V705l-7.14,13.41L266.54,705v14.53h-2.19Z"/><path class="cls-6" d="M299.52,710.75v8.82h-2.1V717.3a6.06,6.06,0,0,1-5.1,2.61c-3.05,0-5.29-1.77-5.29-4.62s2.58-4.82,5.69-4.82a16,16,0,0,1,4.7.81v-.53c0-2-.78-4.2-3.92-4.2a9.73,9.73,0,0,0-4.23,1.32l-.84-1.71a11.65,11.65,0,0,1,5.21-1.4C297.59,704.76,299.52,707.25,299.52,710.75Zm-2.1,4.29v-2.22a16.67,16.67,0,0,0-4.37-.58c-2.15,0-4,1.23-4,3s1.56,2.86,3.61,2.86C294.59,718.06,296.86,717.08,297.42,715Z"/><path class="cls-6" d="M303.66,724.14l.51-1.8a3.7,3.7,0,0,0,1.71.37,2.16,2.16,0,0,0,2.1-1.29l.84-1.79-6.3-14.53h2.32l5.07,12,4.79-12H317l-6.6,16.1c-1,2.46-2.41,3.38-4.4,3.41A5.69,5.69,0,0,1,303.66,724.14Z"/><path class="cls-6" d="M419.59,716.71l1.6-1.56a4.94,4.94,0,0,0,4.31,2.77c2.27,0,3.89-1.9,3.89-4.62v-13h2.19v13c0,3.86-2.52,6.61-6.08,6.61A7.34,7.34,0,0,1,419.59,716.71Z"/><path class="cls-6" d="M448.4,705.1v14.47h-2.1v-2.32a5.48,5.48,0,0,1-4.76,2.66,5.3,5.3,0,0,1-5.43-5.6V705.1h2.1V714c0,2.35,1.49,4,3.61,4,2.44,0,4.48-1.71,4.48-3.72V705.1Z"/><path class="cls-6" d="M465,710.36v9.21h-2.1v-8.93c0-2.35-1.49-4-3.61-4-2.44,0-4.48,1.7-4.48,3.72v9.21h-2.1V705.1h2.1v2.32a5.48,5.48,0,0,1,4.76-2.66A5.29,5.29,0,0,1,465,710.36Z"/><path class="cls-6" d="M587.7,716.71l1.6-1.56a4.94,4.94,0,0,0,4.31,2.77c2.27,0,3.89-1.9,3.89-4.62v-13h2.19v13c0,3.86-2.52,6.61-6.08,6.61A7.34,7.34,0,0,1,587.7,716.71Z"/><path class="cls-6" d="M616.51,705.1v14.47h-2.1v-2.32a5.48,5.48,0,0,1-4.76,2.66,5.3,5.3,0,0,1-5.43-5.6V705.1h2.1V714c0,2.35,1.49,4,3.61,4,2.44,0,4.48-1.71,4.48-3.72V705.1Z"/><path class="cls-6" d="M620.8,700h2.1v19.57h-2.1Z"/><path class="cls-6" d="M765.17,715.2H754.45l-1.94,4.37h-2.38l8.49-19.24H761l8.48,19.24H767.1Zm-.9-2.07L759.82,703l-4.48,10.11Z"/><path class="cls-6" d="M784.8,705.1v14.47h-2.1v-2.32a5.49,5.49,0,0,1-4.76,2.66,5.3,5.3,0,0,1-5.43-5.6V705.1h2.1V714c0,2.35,1.48,4,3.61,4,2.43,0,4.48-1.71,4.48-3.72V705.1Z"/><path class="cls-6" d="M802.44,705.1V718c0,3.72-2.94,6.36-7.11,6.36a9.34,9.34,0,0,1-5.86-1.93l.93-1.66a6.82,6.82,0,0,0,4.64,1.71c3.34,0,5.3-1.65,5.3-4.48v-2.35a6,6,0,0,1-5.27,2.83,6.88,6.88,0,0,1,0-13.75,6,6,0,0,1,5.27,2.83V705.1Zm-2.1,6.52a4.86,4.86,0,1,0-4.87,5A4.73,4.73,0,0,0,800.34,711.62Z"/><path class="cls-6" d="M915.45,716.83l1.37-1.71a8.6,8.6,0,0,0,6.3,2.77c3,0,4.48-1.62,4.48-3.36,0-2-1.82-2.85-5.18-3.64-3.87-.89-6.3-2.1-6.3-5.43,0-3.08,2.74-5.49,6.44-5.49a9.54,9.54,0,0,1,6.74,2.75l-1.34,1.7a8,8,0,0,0-5.51-2.46c-2.39,0-4.12,1.57-4.12,3.33,0,2,1.9,2.69,5.18,3.47,3.67.87,6.3,2.19,6.3,5.57,0,3.06-2.3,5.55-6.78,5.55A10.42,10.42,0,0,1,915.45,716.83Z"/><path class="cls-6" d="M944.54,716.29l1.28,1.38a8.64,8.64,0,0,1-5.82,2.24,7.45,7.45,0,0,1-7.34-7.62,7.28,7.28,0,0,1,7.14-7.53c4.37,0,6.86,3.3,6.86,8.37H934.82A5.14,5.14,0,0,0,940,718,6.77,6.77,0,0,0,944.54,716.29Zm-9.69-5h9.74c-.28-2.6-1.82-4.61-4.7-4.61A5.06,5.06,0,0,0,934.85,711.25Z"/><path class="cls-6" d="M964.33,712.32c0,4.45-2.85,7.59-6.66,7.59a5.89,5.89,0,0,1-5.27-3v7.53h-2.1V705.1h2.1v2.71a5.89,5.89,0,0,1,5.27-3C961.48,704.76,964.33,707.9,964.33,712.32Zm-2.21,0c0-3.33-2-5.68-4.84-5.68s-4.88,2.35-4.88,5.68,2,5.71,4.88,5.71S962.12,715.65,962.12,712.32Z"/><rect class="cls-6" x="113" y="228.8" width="873" height="1"/><rect class="cls-6" x="113" y="121" width="873" height="1"/><rect class="cls-6" x="113" y="336.6" width="873" height="1"/><rect class="cls-6" x="113" y="444.4" width="873" height="1"/><rect class="cls-6" x="113" y="552.2" width="873" height="1"/><rect class="cls-6" x="61.5" y="660" width="924.5" height="1"/></g><g id="data"><rect class="cls-7" x="713" y="61" width="128" height="84" rx="6"/><rect class="cls-7" x="542" y="112" width="128" height="84" rx="6"/><rect class="cls-7" x="224" y="155" width="128" height="84" rx="6"/><path class="cls-8" d="M765.67,84h-4.39v4.44h-2.61V84h-4.4v-2.5h4.4V77.05h2.61v4.46h4.39Z"/><path class="cls-8" d="M780.75,85.45c0,3.26-2.6,5.61-6.15,5.61-4.68,0-6.77-3.5-6.77-8.25,0-5.09,3-8.81,7.3-8.81a7.26,7.26,0,0,1,4.92,1.85l-1.47,2.28a5,5,0,0,0-3.48-1.49c-2.32,0-4,2.23-4.17,5.47a5.65,5.65,0,0,1,4.27-1.87C778.22,80.24,780.75,82.16,780.75,85.45Zm-3,.12c0-1.8-1.49-2.88-3.29-2.88A3.4,3.4,0,0,0,771.07,85c.36,2.18,1.39,3.55,3.39,3.55A3,3,0,0,0,777.7,85.57Z"/><path class="cls-8" d="M782.45,78.34a4,4,0,1,1,4,4.16A4,4,0,0,1,782.45,78.34Zm5.95,0a2.14,2.14,0,0,0-1.94-2.4c-1.13,0-2,1-2,2.4a2.11,2.11,0,0,0,2,2.35A2.09,2.09,0,0,0,788.4,78.34Zm7.56-4h2.21l-11.4,16.49h-2.21Zm-3.77,12.55a4,4,0,1,1,4,4.18A4,4,0,0,1,792.19,86.84Zm6,0a2.13,2.13,0,0,0-2-2.38c-1.13,0-1.92,1-1.92,2.36s.82,2.4,2,2.4S798.17,88.26,798.17,86.84Z"/><path class="cls-9" d="M752.79,122.32H741.47L741,117.9l10.57-14.45h7.07v14h3v4.83h-3v4.46h-5.81Zm0-4.83v-8l-5.81,8Z"/><path class="cls-9" d="M763.57,123.61a3.52,3.52,0,1,1,3.6,3.57A3.53,3.53,0,0,1,763.57,123.61Z"/><path class="cls-9" d="M792.23,119c0,4.93-4,8.19-9.18,8.19-7,0-10.27-4.79-10.27-11.66,0-7.41,4.32-12.51,11.15-12.51a11.65,11.65,0,0,1,7.35,2.45l-2.69,4.39a6.88,6.88,0,0,0-4.62-1.77c-2.76,0-4.52,2-5,5.27a8.86,8.86,0,0,1,5.4-1.84C788.66,111.51,792.23,114.33,792.23,119Zm-6,.24c0-1.94-1.73-3.06-3.71-3.06a3.92,3.92,0,0,0-3.63,2.24c.37,2.59,1.39,3.84,3.77,3.84C784.89,122.25,786.28,120.89,786.28,119.23Z"/><path class="cls-9" d="M793.62,123.31l3.34-3.84a8.52,8.52,0,0,0,6,2.55c2.34,0,3.64-1,3.64-2.35s-1.13-2.21-4.08-2.21l-2.76,0V112.6h2.76c2.34,0,3.6-.75,3.6-2.11s-1.39-2.28-3.5-2.28a7.5,7.5,0,0,0-5.31,2.49l-3.26-3.54a11.45,11.45,0,0,1,9.18-4.15c5.51,0,8.8,2.72,8.8,6.39a5.49,5.49,0,0,1-4.31,5.34c2.58.61,4.82,2.45,4.82,5.44,0,4.11-3.63,7-9.28,7A12.7,12.7,0,0,1,793.62,123.31Z"/><path class="cls-10" d="M585.7,134.9h6.45v2.57H585.7Z"/><path class="cls-10" d="M602,139.2h-8.13l-.29-2.33,7.82-10.58H605v10.34h2.28v2.57H605v3.58h-3Zm0-2.57v-7.08l-5.23,7.08Z"/><path class="cls-10" d="M608.71,130.34a4,4,0,1,1,4,4.16A4,4,0,0,1,608.71,130.34Zm6,0a2.14,2.14,0,0,0-1.95-2.4c-1.13,0-1.94,1-1.94,2.4a2.11,2.11,0,0,0,1.94,2.35A2.09,2.09,0,0,0,614.67,130.34Zm7.56-4h2.2L613,142.78h-2.2Zm-3.77,12.55a4,4,0,1,1,4,4.18A4,4,0,0,1,618.46,138.84Zm6,0a2.13,2.13,0,0,0-2-2.38c-1.13,0-1.92,1-1.92,2.36s.81,2.4,1.94,2.4S624.43,140.26,624.43,138.84Z"/><path class="cls-9" d="M585.33,174.32H574l-.51-4.42,10.57-14.45h7.07v14h3v4.83h-3v4.46h-5.81Zm0-4.83v-8l-5.82,8Z"/><path class="cls-9" d="M596.11,175.61a3.53,3.53,0,0,1,3.6-3.43,3.5,3.5,0,0,1,0,7A3.55,3.55,0,0,1,596.11,175.61Z"/><path class="cls-9" d="M610.66,162l-3.95,2.45-2.31-4.05,7.41-5h4.63v23.36h-5.78Z"/><path class="cls-9" d="M619.6,174.05l8.63-6.46c2.62-2,3.37-3.26,3.37-4.69,0-1.6-1.39-2.62-3.09-2.62-2.18,0-3.81,1.06-5.58,2.93l-3.64-3.61a11.64,11.64,0,0,1,9.35-4.59c5.24,0,8.91,3.2,8.91,7.65,0,3.1-1.29,5.51-5.37,8.3l-3.67,2.61h9.28v5.21H619.6Z"/><rect class="cls-7" x="380" y="107" width="128" height="84" rx="6"/><path class="cls-8" d="M431.89,129H427.5v4.44h-2.62V129h-4.39v-2.5h4.39v-4.46h2.62v4.46h4.39Z"/><path class="cls-8" d="M433.9,131.38c0-2,1.44-3.43,3.36-4.12-1.7-.72-2.92-2-2.92-3.82,0-2.83,2.88-4.44,6-4.44s6,1.65,6,4.44a4.12,4.12,0,0,1-2.93,3.82c1.95.74,3.37,2.18,3.37,4.12,0,3-2.89,4.68-6.44,4.68S433.9,134.31,433.9,131.38Zm9.82-.28c0-1.54-1.87-2.45-3.41-2.52s-3.41,1-3.41,2.52,1.47,2.4,3.41,2.4S443.72,132.54,443.72,131.1Zm-.36-7.28c0-1.29-1.32-2.28-3.05-2.28s-3,1-3,2.28c0,1.47,1.65,2.28,3,2.35S443.36,125.26,443.36,123.82Z"/><path class="cls-8" d="M448.23,123.34a4,4,0,1,1,4,4.16A4,4,0,0,1,448.23,123.34Zm5.95,0a2.14,2.14,0,0,0-1.94-2.4c-1.13,0-1.94,1-1.94,2.4a2.11,2.11,0,0,0,1.94,2.35A2.08,2.08,0,0,0,454.18,123.34Zm7.57-4H464l-11.4,16.49h-2.21ZM458,131.84a4,4,0,1,1,4,4.18A4,4,0,0,1,458,131.84Zm6,0a2.13,2.13,0,0,0-2-2.38c-1.13,0-1.92,1-1.92,2.36s.81,2.4,1.94,2.4S464,133.26,464,131.84Z"/><path class="cls-9" d="M418.69,167.32H407.37l-.51-4.42,10.57-14.45h7.07v14h3v4.83h-3v4.46h-5.81Zm0-4.83v-8l-5.81,8Z"/><path class="cls-9" d="M429.47,168.61a3.52,3.52,0,1,1,3.6,3.57A3.53,3.53,0,0,1,429.47,168.61Z"/><path class="cls-9" d="M438.85,167.05l8.64-6.46c2.61-2,3.36-3.26,3.36-4.69,0-1.6-1.39-2.62-3.09-2.62-2.18,0-3.81,1.06-5.58,2.93l-3.63-3.61a11.61,11.61,0,0,1,9.34-4.59c5.24,0,8.91,3.2,8.91,7.65,0,3.1-1.29,5.51-5.37,8.3l-3.67,2.61H457v5.21H438.85Z"/><path class="cls-9" d="M478.46,164c0,4.93-4,8.19-9.18,8.19-7,0-10.27-4.79-10.27-11.66,0-7.41,4.32-12.51,11.16-12.51a11.64,11.64,0,0,1,7.34,2.45l-2.69,4.39a6.88,6.88,0,0,0-4.62-1.77c-2.75,0-4.52,2-5,5.27a8.86,8.86,0,0,1,5.4-1.84C474.89,156.51,478.46,159.33,478.46,164Zm-5.95.24c0-1.94-1.73-3.06-3.71-3.06a3.92,3.92,0,0,0-3.63,2.24c.37,2.59,1.39,3.84,3.77,3.84C471.12,167.25,472.51,165.89,472.51,164.23Z"/><path class="cls-8" d="M273.12,179h-4.39v4.44h-2.62V179h-4.39v-2.5h4.39v-4.46h2.62v4.46h4.39Z"/><path class="cls-8" d="M274.84,183.28l1.83-2a6,6,0,0,0,4.51,2.09c2,0,3.19-1,3.19-2.42s-1.22-2.24-3.55-2.24l-1.85,0v-2.6h1.85c1.94,0,3.22-.76,3.22-2.2s-1.3-2.28-3.08-2.28a5.25,5.25,0,0,0-4,2l-1.78-1.83a7.41,7.41,0,0,1,6.05-2.9c3.5,0,5.83,1.87,5.83,4.49a3.94,3.94,0,0,1-3.12,3.81,4.1,4.1,0,0,1,3.48,3.92c0,2.83-2.42,4.84-6.14,4.84A8.21,8.21,0,0,1,274.84,183.28Z"/><path class="cls-8" d="M289,173.34a4,4,0,1,1,4,4.16A4,4,0,0,1,289,173.34Zm6,0a2.14,2.14,0,0,0-1.95-2.4c-1.13,0-1.94,1-1.94,2.4a2.11,2.11,0,0,0,1.94,2.35A2.09,2.09,0,0,0,295,173.34Zm7.56-4.05h2.21l-11.4,16.49h-2.21Zm-3.77,12.55a4,4,0,1,1,4,4.18A4,4,0,0,1,298.75,181.84Zm6,0a2.13,2.13,0,0,0-2-2.38c-1.13,0-1.92,1-1.92,2.36s.81,2.4,1.94,2.4S304.73,183.26,304.73,181.84Z"/><path class="cls-9" d="M251.77,218.31l3.33-3.84a8.54,8.54,0,0,0,6,2.55c2.35,0,3.64-1,3.64-2.35s-1.12-2.21-4.08-2.21l-2.75,0V207.6h2.75c2.35,0,3.6-.75,3.6-2.11s-1.39-2.28-3.5-2.28a7.5,7.5,0,0,0-5.3,2.49l-3.27-3.54a11.46,11.46,0,0,1,9.18-4.15c5.51,0,8.81,2.72,8.81,6.39a5.5,5.5,0,0,1-4.32,5.34c2.59.61,4.83,2.45,4.83,5.44,0,4.11-3.64,7-9.28,7A12.67,12.67,0,0,1,251.77,218.31Z"/><path class="cls-9" d="M272.81,218.61a3.54,3.54,0,0,1,3.61-3.43,3.5,3.5,0,0,1,0,7A3.56,3.56,0,0,1,272.81,218.61Z"/><path class="cls-9" d="M301.47,214c0,4.93-4,8.19-9.18,8.19-7,0-10.26-4.79-10.26-11.66,0-7.41,4.31-12.51,11.15-12.51a11.62,11.62,0,0,1,7.34,2.45l-2.68,4.39a6.92,6.92,0,0,0-4.63-1.77c-2.75,0-4.52,2-5,5.27a8.87,8.87,0,0,1,5.41-1.84C297.9,206.51,301.47,209.33,301.47,214Zm-6,.24c0-1.94-1.73-3.06-3.7-3.06a3.94,3.94,0,0,0-3.64,2.24c.37,2.59,1.39,3.84,3.77,3.84C294.13,217.25,295.52,215.89,295.52,214.23Z"/><path class="cls-9" d="M308.75,205l-3.94,2.45-2.31-4.05,7.41-5h4.62v23.36h-5.78Z"/><rect class="cls-6" x="776.99" y="155.37" width="1" height="505.63"/></g></svg>