<?xml version="1.0" encoding="UTF-8"?><svg id="Ebene_1" xmlns="http://www.w3.org/2000/svg" viewBox="0 0 87.85 93.92"><defs><style>.cls-1{fill:#254b9b;}.cls-2{fill:#9ac31c;}</style></defs><path class="cls-1" d="m33.69,91.5c-10.8-8.46-22.69-20.28-31.26-31.26-3.26-4.17-3.22-10.45,0-14.65,8.46-10.8,20.46-22.81,31.26-31.26,4.2-3.22,10.45-3.22,14.65,0,10.8,8.46,22.81,20.46,31.26,31.26,3.22,4.2,3.22,10.45,0,14.65-8.46,10.8-20.46,22.81-31.26,31.26-4.2,3.22-10.45,3.22-14.65,0"/><path class="cls-2" d="m4.17,62.43s15.09-31.73,35.87-30.42c0,0,1.59-4.92,3.31-5.98,3.27-2,5.66-3,6.85-3.43.41-.15.84.17.83.6l-1.2,9.55c0,.16.05.32.16.43l1.5,1.71c.24.26.65.27.9.02L87.53.06c.16-.16.41.04.29.23l-27.11,42.58c-.14.22-.13.51.04.72,2.1,2.64,14.08,19.26,16.28,23.07,1.12,1.93.99,8.24-2.67,10.24-3.66,1.99-5.65,2.46-9.43.41-3.69-2-10.89-5.28-13.57-6.49-.62-.28-1.31-.36-1.97-.22-2.41.52-8.95,1.18-13.36-5.58-.09-.14-.3-.11-.34.05-.5,2.12-2.67,12.08-3.05,25.6-16.34-12.87-28.47-28.24-28.47-28.24"/></svg>